<?xml version="1.0" standalone="no"?>
<!DOCTYPE svg PUBLIC "-//W3C//DTD SVG 20010904//EN"
 "http://www.w3.org/TR/2001/REC-SVG-20010904/DTD/svg10.dtd">
<svg version="1.0" xmlns="http://www.w3.org/2000/svg"
 width="626.000000pt" height="376.000000pt" viewBox="0 0 626.000000 376.000000"
 preserveAspectRatio="xMidYMid meet">

<g transform="translate(0.000000,376.000000) scale(0.100000,-0.100000)"
fill="#000000" stroke="none">
<path d="M1304 2397 c-61 -62 -113 -117 -117 -123 -4 -7 81 -77 209 -175 119
-90 226 -172 238 -182 21 -18 21 -18 32 8 16 40 63 85 95 92 l29 5 -22 32
c-12 17 -25 33 -28 36 -3 3 -11 17 -19 33 -8 15 -18 27 -22 27 -4 0 -67 79
-140 175 -72 97 -135 177 -138 180 -4 2 -57 -47 -117 -108z"/>
<path d="M2804 2057 c-2 -7 -3 -91 -2 -187 l3 -175 138 -3 137 -3 0 35 0 35
-97 3 -96 3 0 40 0 40 84 5 c83 5 84 5 87 33 l3 27 -85 0 -86 0 0 45 0 45 90
0 90 0 0 35 0 35 -130 0 c-97 0 -132 -3 -136 -13z"/>
<path d="M3264 2053 c3 -11 37 -95 74 -188 l68 -170 35 -3 35 -3 76 191 76
190 -43 0 -42 0 -51 -122 c-50 -120 -51 -122 -62 -93 -6 17 -28 71 -48 120
l-37 90 -43 3 c-39 3 -43 1 -38 -15z"/>
<path d="M3820 1880 l0 -190 140 0 140 0 0 35 0 35 -101 0 -100 0 3 43 3 42
83 3 82 3 0 29 0 29 -82 3 -83 3 0 40 0 40 93 3 92 3 0 34 0 35 -135 0 -135 0
0 -190z"/>
<path d="M4320 1880 l0 -190 40 0 40 0 0 115 c0 63 3 115 8 115 4 -1 45 -52
92 -115 l85 -115 43 0 42 0 0 190 0 190 -40 0 -40 0 0 -120 c0 -66 -3 -120 -7
-120 -5 1 -48 55 -98 120 -87 116 -91 120 -127 120 l-38 0 0 -190z"/>
<path d="M4880 2035 l0 -35 50 0 50 0 0 -155 0 -155 40 0 39 0 3 153 3 152 53
3 52 3 0 35 0 34 -145 0 -145 0 0 -35z"/>
<path d="M1942 1833 c-12 -35 -58 -82 -89 -89 -22 -6 -33 -34 -13 -34 6 0 10
-6 10 -13 0 -7 16 -31 36 -53 20 -21 97 -119 172 -218 l134 -178 100 98 c55
55 108 111 119 125 l19 27 -78 58 c-42 31 -144 109 -227 172 -82 64 -155 119
-161 124 -8 6 -15 -1 -22 -19z"/>
</g>
</svg>
